<svg xmlns="http://www.w3.org/2000/svg" viewBox="0 0 64 64">
  <rect width="64" height="64" rx="14" fill="#10151b"/>
  <rect x="9" y="21" width="26" height="17" rx="2" fill="#e8a33d"/>
  <path d="M35 24h10a2 2 0 0 1 2 2v2.2h3.4a2 2 0 0 1 1.6.8l4 5.2c.3.35.45.8.45 1.25V37a2 2 0 0 1-2 2H35V24Z" fill="#e8a33d"/>
  <path d="M42.2 28.2h4.6l3.6 4.6h-8.2z" fill="#10151b"/>
  <circle cx="20" cy="41" r="6.4" fill="#e8a33d"/>
  <circle cx="20" cy="41" r="2.6" fill="#10151b"/>
  <circle cx="45" cy="41" r="6.4" fill="#e8a33d"/>
  <circle cx="45" cy="41" r="2.6" fill="#10151b"/>
</svg>
